

[b]Firewall (2006) [Hindi] [418MB] 480p x264 BR Rip [PKG][/b]


[img]http://covers.box.sk/newsimg/dvdmov/max1140983263-frontback-cover.jpg[/img]

[b]Small In Size But Best IN QUALITY....
Unbeatable QUALITY..

One Man Army

Audio Perfectly sync by me...

Sample Included In the Torrent

IMDB link- [/b] [url]http://www.imdb.com/title/tt0408345/[/url]

[img]http://s20.postimage.org/3tulm6dq5/Untitled.png[/img]

[b]Thumbnails[/b]

[img]http://s20.postimage.org/es5v4d2bh/Firewall_2006_Hindi_418_MB_480p_x264_BR_Rip.jpg[/img]

[b]Screenshots[/b]

[img]http://s20.postimage.org/qjtqf5wxp/vlcsnap_2013_02_15_19h04m28s45.png[/img]

[img]http://s20.postimage.org/5oc1hnq4d/vlcsnap_2013_02_15_19h04m35s134.png[/img]

[img]http://s20.postimage.org/z4rnk2whp/vlcsnap_2013_02_15_19h04m43s218.png[/img]

[img]http://s20.postimage.org/rq2brpam5/vlcsnap_2013_02_15_19h05m00s126.png[/img]

[img]http://s20.postimage.org/tvwmm7e2l/vlcsnap_2013_02_15_19h05m38s7.png[/img]

[img]http://s20.postimage.org/nw8vijta5/vlcsnap_2013_02_15_19h05m44s64.png[/img]

[img]http://s20.postimage.org/6wzx3ai2l/vlcsnap_2013_02_15_19h06m30s16.png[/img]

[img]http://s20.postimage.org/h8c9vy9rx/vlcsnap_2013_02_15_19h07m22s13.png[/img]

[b]MediaInfo[/b]

[code]
General
Unique ID                                : 243998642498374964541622119754076235022 (0xB7906DDFE749039C8F7D11A6DC4BA50E)
Complete name                            : E:SeedingFirewall (2006) [Hindi] [418MB] 480p x264 BR Rip [PKG]Firewall (2006) [Hindi] [418MB] 480p x264 BR Rip [PKG].mkv
Format                                   : Matroska
Format version                           : Version 4 / Version 2
File size                                : 419 MiB
Duration                                 : 1h 41mn
Overall bit rate mode                    : Variable
Overall bit rate                         : 575 Kbps
Movie name                               : Firewall (2006) [PKG]
Encoded date                             : UTC 2013-02-15 13:12:57
Writing application                      : mkvmerge v6.0.0 ('Coming Up For Air') built on Jan 20 2013 09:52:00
Writing library                          : libebml v1.3.0 + libmatroska v1.4.0

Video
ID                                       : 1
Format                                   : AVC
Format/Info                              : Advanced Video Codec
Format profile                           : High@L4.1
Format settings, CABAC                   : Yes
Format settings, ReFrames                : 3 frames
Codec ID                                 : V_MPEG4/ISO/AVC
Duration                                 : 1h 41mn
Bit rate mode                            : Variable
Bit rate                                 : 413 Kbps
Maximum bit rate                         : 14.0 Mbps
Width                                    : 720 pixels
Height                                   : 304 pixels
Display aspect ratio                     : 2.35:1
Frame rate                               : 23.976 fps
Color space                              : YUV
Chroma subsampling                       : 4:2:0
Bit depth                                : 8 bits
Scan type                                : Progressive
Bits/(Pixel*Frame)                       : 0.079
Stream size                              : 294 MiB (70%)
Title                                    : Firewall (2006) [PKG]
Writing library                          : x264 core 129 r2245 bc13772
Encoding settings                        : cabac=1 / ref=3 / deblock=1:0:0 / analyse=0x3:0x113 / me=hex / subme=7 / psy=1 / psy_rd=1.00:0.00 / mixed_ref=1 / me_range=16 / chroma_me=1 / trellis=1 / 8x8dct=1 / cqm=0 / deadzone=21,11 / fast_pskip=1 / chroma_qp_offset=-2 / threads=6 / lookahead_threads=1 / sliced_threads=0 / slices=4 / nr=0 / decimate=1 / interlaced=0 / bluray_compat=1 / constrained_intra=0 / bframes=3 / b_pyramid=1 / b_adapt=2 / b_bias=0 / direct=1 / weightb=1 / open_gop=1 / weightp=1 / keyint=24 / keyint_min=1 / scenecut=40 / intra_refresh=0 / rc_lookahead=24 / rc=2pass / mbtree=1 / bitrate=413 / ratetol=1.0 / qcomp=0.60 / qpmin=0 / qpmax=69 / qpstep=4 / cplxblur=20.0 / qblur=0.5 / vbv_maxrate=14000 / vbv_bufsize=14000 / nal_hrd=vbr / ip_ratio=1.40 / aq=1:1.00
Language                                 : English
Default                                  : Yes
Forced                                   : No

Audio
ID                                       : 2
Format                                   : AC-3
Format/Info                              : Audio Coding 3
Mode extension                           : CM (complete main)
Codec ID                                 : A_AC3
Duration                                 : 1h 41mn
Bit rate mode                            : Constant
Bit rate                                 : 160 Kbps
Channel(s)                               : 2 channels
Channel positions                        : Front: L R
Sampling rate                            : 44.1 KHz
Bit depth                                : 16 bits
Compression mode                         : Lossy
Delay relative to video                  : 50ms
Stream size                              : 117 MiB (28%)
Title                                    : Hindi [PKG]
Language                                 : Hindi
Default                                  : No
Forced                                   : Yes


[/code]



Special Thanks to  ┬« I'm Loser ┬«...